<svg xmlns="http://www.w3.org/2000/svg" viewBox="0 0 800 400">
  <defs>
    <linearGradient id="jobhunt-bg" x1="0%" y1="0%" x2="100%" y2="100%">
      <stop offset="0%" style="stop-color:#0a0a0a"/>
      <stop offset="100%" style="stop-color:#1a1a2e"/>
    </linearGradient>
    <marker id="jobhunt-arrow" markerWidth="8" markerHeight="8" refX="7" refY="3" orient="auto">
      <path d="M0,0 L0,6 L7,3 z" fill="#4b5563"/>
    </marker>
  </defs>

  <rect width="800" height="400" fill="url(#jobhunt-bg)"/>

  <!-- Title -->
  <text x="400" y="35" text-anchor="middle" fill="#ffffff" font-family="system-ui" font-size="24" font-weight="bold">JobHunt AI Agent</text>
  <text x="400" y="58" text-anchor="middle" fill="#a1a1aa" font-family="system-ui" font-size="12">Autonomous Founder Outreach System</text>

  <!-- Discovery Agent -->
  <rect x="30" y="100" width="140" height="140" rx="12" fill="#18181b" stroke="#6366f1" stroke-width="2"/>
  <text x="100" y="125" text-anchor="middle" fill="#6366f1" font-family="system-ui" font-size="10" font-weight="bold">DISCOVERY</text>
  <rect x="45" y="140" width="110" height="22" rx="4" fill="#27272a"/>
  <text x="100" y="155" text-anchor="middle" fill="#ffffff" font-family="system-ui" font-size="9">Google Maps API</text>
  <rect x="45" y="167" width="110" height="22" rx="4" fill="#27272a"/>
  <text x="100" y="182" text-anchor="middle" fill="#ffffff" font-family="system-ui" font-size="9">Playwright Scraper</text>
  <rect x="45" y="194" width="110" height="22" rx="4" fill="#27272a"/>
  <text x="100" y="209" text-anchor="middle" fill="#a1a1aa" font-family="system-ui" font-size="9">AI/ML Companies</text>

  <!-- Arrow -->
  <path d="M 180 170 L 220 170" stroke="#4b5563" stroke-width="2" marker-end="url(#jobhunt-arrow)"/>

  <!-- Research Agent -->
  <rect x="230" y="100" width="140" height="140" rx="12" fill="#18181b" stroke="#ec4899" stroke-width="2"/>
  <text x="300" y="125" text-anchor="middle" fill="#ec4899" font-family="system-ui" font-size="10" font-weight="bold">RESEARCH</text>
  <rect x="245" y="140" width="110" height="22" rx="4" fill="#27272a"/>
  <text x="300" y="155" text-anchor="middle" fill="#ffffff" font-family="system-ui" font-size="9">Tech Stack Analysis</text>
  <rect x="245" y="167" width="110" height="22" rx="4" fill="#27272a"/>
  <text x="300" y="182" text-anchor="middle" fill="#ffffff" font-family="system-ui" font-size="9">Funding Status</text>
  <rect x="245" y="194" width="110" height="22" rx="4" fill="#27272a"/>
  <text x="300" y="209" text-anchor="middle" fill="#a1a1aa" font-family="system-ui" font-size="9">News &amp; Updates</text>

  <!-- Arrow -->
  <path d="M 380 170 L 420 170" stroke="#4b5563" stroke-width="2" marker-end="url(#jobhunt-arrow)"/>

  <!-- Scoring -->
  <rect x="430" y="100" width="140" height="140" rx="12" fill="#18181b" stroke="#f59e0b" stroke-width="2"/>
  <text x="500" y="125" text-anchor="middle" fill="#f59e0b" font-family="system-ui" font-size="10" font-weight="bold">LEAD SCORING</text>
  <rect x="445" y="140" width="110" height="22" rx="4" fill="#27272a"/>
  <text x="500" y="155" text-anchor="middle" fill="#ffffff" font-family="system-ui" font-size="9">Ollama LLM</text>
  <rect x="445" y="167" width="110" height="22" rx="4" fill="#27272a"/>
  <text x="500" y="182" text-anchor="middle" fill="#ffffff" font-family="system-ui" font-size="9">Fit Analysis</text>
  <rect x="445" y="194" width="110" height="22" rx="4" fill="#27272a"/>
  <text x="500" y="209" text-anchor="middle" fill="#a1a1aa" font-family="system-ui" font-size="9">Priority Queue</text>

  <!-- Arrow -->
  <path d="M 580 170 L 620 170" stroke="#4b5563" stroke-width="2" marker-end="url(#jobhunt-arrow)"/>

  <!-- Outreach -->
  <rect x="630" y="100" width="140" height="140" rx="12" fill="#18181b" stroke="#22c55e" stroke-width="2"/>
  <text x="700" y="125" text-anchor="middle" fill="#22c55e" font-family="system-ui" font-size="10" font-weight="bold">OUTREACH</text>
  <rect x="645" y="140" width="110" height="22" rx="4" fill="#27272a"/>
  <text x="700" y="155" text-anchor="middle" fill="#ffffff" font-family="system-ui" font-size="9">Gmail API</text>
  <rect x="645" y="167" width="110" height="22" rx="4" fill="#27272a"/>
  <text x="700" y="182" text-anchor="middle" fill="#ffffff" font-family="system-ui" font-size="9">LinkedIn</text>
  <rect x="645" y="194" width="110" height="22" rx="4" fill="#27272a"/>
  <text x="700" y="209" text-anchor="middle" fill="#a1a1aa" font-family="system-ui" font-size="9">Follow-ups</text>

  <!-- Dashboard -->
  <rect x="30" y="270" width="740" height="110" rx="12" fill="#18181b" stroke="#3f3f46" stroke-width="1"/>
  <text x="400" y="295" text-anchor="middle" fill="#ffffff" font-family="system-ui" font-size="11" font-weight="bold">CRM DASHBOARD</text>

  <!-- Tech Stack -->
  <rect x="60" y="310" width="80" height="55" rx="6" fill="#27272a"/>
  <text x="100" y="335" text-anchor="middle" fill="#6366f1" font-family="system-ui" font-size="10" font-weight="bold">Next.js 14</text>
  <text x="100" y="350" text-anchor="middle" fill="#a1a1aa" font-family="system-ui" font-size="8">Frontend</text>

  <rect x="160" y="310" width="80" height="55" rx="6" fill="#27272a"/>
  <text x="200" y="335" text-anchor="middle" fill="#22c55e" font-family="system-ui" font-size="10" font-weight="bold">FastAPI</text>
  <text x="200" y="350" text-anchor="middle" fill="#a1a1aa" font-family="system-ui" font-size="8">Backend</text>

  <rect x="260" y="310" width="80" height="55" rx="6" fill="#27272a"/>
  <text x="300" y="335" text-anchor="middle" fill="#ec4899" font-family="system-ui" font-size="10" font-weight="bold">SQLite</text>
  <text x="300" y="350" text-anchor="middle" fill="#a1a1aa" font-family="system-ui" font-size="8">Database</text>

  <rect x="360" y="310" width="80" height="55" rx="6" fill="#27272a"/>
  <text x="400" y="335" text-anchor="middle" fill="#f59e0b" font-family="system-ui" font-size="10" font-weight="bold">Ollama</text>
  <text x="400" y="350" text-anchor="middle" fill="#a1a1aa" font-family="system-ui" font-size="8">Local LLM</text>

  <!-- Features -->
  <rect x="470" y="310" width="140" height="55" rx="6" fill="#27272a"/>
  <text x="540" y="330" text-anchor="middle" fill="#ffffff" font-family="system-ui" font-size="9">Multi-channel Outreach</text>
  <text x="540" y="345" text-anchor="middle" fill="#ffffff" font-family="system-ui" font-size="9">Response Tracking</text>
  <text x="540" y="360" text-anchor="middle" fill="#a1a1aa" font-family="system-ui" font-size="8">Conversion Analytics</text>

  <rect x="630" y="310" width="120" height="55" rx="6" fill="#27272a"/>
  <text x="690" y="330" text-anchor="middle" fill="#22c55e" font-family="system-ui" font-size="9">Personalized Emails</text>
  <text x="690" y="345" text-anchor="middle" fill="#22c55e" font-family="system-ui" font-size="9">AI-Generated</text>
  <text x="690" y="360" text-anchor="middle" fill="#a1a1aa" font-family="system-ui" font-size="8">Context-Aware</text>
</svg>
