<svg xmlns="http://www.w3.org/2000/svg" viewBox="0 0 800 400">
  <defs>
    <linearGradient id="bg4" x1="0%" y1="0%" x2="100%" y2="100%">
      <stop offset="0%" style="stop-color:#0a0a0a"/>
      <stop offset="100%" style="stop-color:#1a1a2e"/>
    </linearGradient>
  </defs>

  <rect width="800" height="400" fill="url(#bg4)"/>

  <!-- Title -->
  <text x="400" y="35" text-anchor="middle" fill="#ffffff" font-family="system-ui" font-size="24" font-weight="bold">Sarathi Voice Agent</text>
  <text x="400" y="58" text-anchor="middle" fill="#a1a1aa" font-family="system-ui" font-size="12">Multilingual Govt Voice Assistant for Northeast India</text>

  <!-- User/Citizen -->
  <circle cx="80" cy="180" r="40" fill="#18181b" stroke="#22c55e" stroke-width="2"/>
  <circle cx="80" cy="165" r="12" fill="#27272a"/>
  <ellipse cx="80" cy="195" rx="20" ry="12" fill="#27272a"/>
  <text x="80" y="240" text-anchor="middle" fill="#22c55e" font-family="system-ui" font-size="10" font-weight="bold">CITIZEN</text>
  <text x="80" y="255" text-anchor="middle" fill="#a1a1aa" font-family="system-ui" font-size="9">31M+ users</text>

  <!-- Voice Input Arrow -->
  <path d="M 130 180 L 170 180" stroke="#22c55e" stroke-width="2" marker-end="url(#ar4)"/>
  <text x="150" y="170" text-anchor="middle" fill="#22c55e" font-family="system-ui" font-size="8">Voice</text>
  <defs><marker id="ar4" markerWidth="8" markerHeight="8" refX="7" refY="3" orient="auto"><path d="M0,0 L0,6 L7,3 z" fill="#22c55e"/></marker></defs>

  <!-- ASR -->
  <rect x="180" y="130" width="120" height="100" rx="12" fill="#18181b" stroke="#6366f1" stroke-width="2"/>
  <text x="240" y="155" text-anchor="middle" fill="#6366f1" font-family="system-ui" font-size="10" font-weight="bold">ASR</text>
  <rect x="195" y="165" width="90" height="22" rx="4" fill="#27272a"/>
  <text x="240" y="180" text-anchor="middle" fill="#ffffff" font-family="system-ui" font-size="9">faster-whisper</text>
  <rect x="195" y="192" width="90" height="25" rx="4" fill="#27272a"/>
  <text x="240" y="208" text-anchor="middle" fill="#a1a1aa" font-family="system-ui" font-size="8">Assamese | Bodo | Hindi</text>

  <!-- Arrow -->
  <path d="M 310 180 L 350 180" stroke="#4b5563" stroke-width="2" marker-end="url(#ar4b)"/>
  <defs><marker id="ar4b" markerWidth="8" markerHeight="8" refX="7" refY="3" orient="auto"><path d="M0,0 L0,6 L7,3 z" fill="#4b5563"/></marker></defs>

  <!-- LLM + RAG -->
  <rect x="360" y="110" width="140" height="140" rx="12" fill="#18181b" stroke="#ec4899" stroke-width="2"/>
  <text x="430" y="135" text-anchor="middle" fill="#ec4899" font-family="system-ui" font-size="10" font-weight="bold">INTELLIGENCE</text>
  <rect x="375" y="145" width="110" height="22" rx="4" fill="#27272a"/>
  <text x="430" y="160" text-anchor="middle" fill="#ffffff" font-family="system-ui" font-size="9">GPT-4o-mini</text>
  <rect x="375" y="172" width="110" height="22" rx="4" fill="#27272a"/>
  <text x="430" y="187" text-anchor="middle" fill="#ffffff" font-family="system-ui" font-size="9">LangChain</text>
  <rect x="375" y="199" width="110" height="22" rx="4" fill="#27272a"/>
  <text x="430" y="214" text-anchor="middle" fill="#ffffff" font-family="system-ui" font-size="9">Qdrant KB</text>
  <text x="430" y="238" text-anchor="middle" fill="#a1a1aa" font-family="system-ui" font-size="8">10+ Govt Services</text>

  <!-- Arrow -->
  <path d="M 510 180 L 550 180" stroke="#4b5563" stroke-width="2" marker-end="url(#ar4b)"/>

  <!-- TTS -->
  <rect x="560" y="130" width="120" height="100" rx="12" fill="#18181b" stroke="#f59e0b" stroke-width="2"/>
  <text x="620" y="155" text-anchor="middle" fill="#f59e0b" font-family="system-ui" font-size="10" font-weight="bold">TTS</text>
  <rect x="575" y="165" width="90" height="22" rx="4" fill="#27272a"/>
  <text x="620" y="180" text-anchor="middle" fill="#ffffff" font-family="system-ui" font-size="9">Bhashini API</text>
  <rect x="575" y="192" width="90" height="25" rx="4" fill="#27272a"/>
  <text x="620" y="208" text-anchor="middle" fill="#a1a1aa" font-family="system-ui" font-size="8">Hybrid pre-recorded</text>

  <!-- Arrow back to user -->
  <path d="M 690 180 L 730 180 L 730 320 L 80 320 L 80 280" stroke="#f59e0b" stroke-width="2" marker-end="url(#ar4c)"/>
  <text x="405" y="335" text-anchor="middle" fill="#f59e0b" font-family="system-ui" font-size="8">Voice Response</text>
  <defs><marker id="ar4c" markerWidth="8" markerHeight="8" refX="3" refY="0" orient="auto"><path d="M0,0 L6,0 L3,7 z" fill="#f59e0b"/></marker></defs>

  <!-- Channels -->
  <rect x="180" y="280" width="500" height="50" rx="8" fill="#18181b" stroke="#3f3f46" stroke-width="1"/>
  <text x="240" y="310" text-anchor="middle" fill="#22c55e" font-family="system-ui" font-size="9" font-weight="bold">Kiosk</text>
  <text x="340" y="310" text-anchor="middle" fill="#6366f1" font-family="system-ui" font-size="9" font-weight="bold">Mobile</text>
  <text x="440" y="310" text-anchor="middle" fill="#ec4899" font-family="system-ui" font-size="9" font-weight="bold">WhatsApp</text>
  <text x="540" y="310" text-anchor="middle" fill="#f59e0b" font-family="system-ui" font-size="9" font-weight="bold">Web</text>
  <text x="620" y="310" text-anchor="middle" fill="#a1a1aa" font-family="system-ui" font-size="9" font-weight="bold">IVR</text>

  <!-- Target Metrics -->
  <rect x="700" y="90" width="90" height="160" rx="8" fill="#18181b" stroke="#22c55e" stroke-width="1"/>
  <text x="745" y="115" text-anchor="middle" fill="#22c55e" font-family="system-ui" font-size="9" font-weight="bold">TARGETS</text>
  <text x="745" y="140" text-anchor="middle" fill="#ffffff" font-family="system-ui" font-size="14" font-weight="bold">&lt;500ms</text>
  <text x="745" y="155" text-anchor="middle" fill="#a1a1aa" font-family="system-ui" font-size="8">Latency</text>
  <text x="745" y="180" text-anchor="middle" fill="#ffffff" font-family="system-ui" font-size="14" font-weight="bold">90%+</text>
  <text x="745" y="195" text-anchor="middle" fill="#a1a1aa" font-family="system-ui" font-size="8">Resolution</text>
  <text x="745" y="220" text-anchor="middle" fill="#ffffff" font-family="system-ui" font-size="14" font-weight="bold">1000+</text>
  <text x="745" y="235" text-anchor="middle" fill="#a1a1aa" font-family="system-ui" font-size="8">Daily/Kiosk</text>

  <!-- Impact -->
  <text x="400" y="380" text-anchor="middle" fill="#22c55e" font-family="system-ui" font-size="11">Reducing 5-7 office visits to 1-2 visits for 31M+ citizens in Assam</text>
</svg>