<svg xmlns="http://www.w3.org/2000/svg" viewBox="0 0 800 400">
  <defs>
    <linearGradient id="uidai-bg" x1="0%" y1="0%" x2="100%" y2="100%">
      <stop offset="0%" style="stop-color:#0a0a0a"/>
      <stop offset="100%" style="stop-color:#1a1a2e"/>
    </linearGradient>
    <marker id="uidai-arrow" markerWidth="8" markerHeight="8" refX="7" refY="3" orient="auto">
      <path d="M0,0 L0,6 L7,3 z" fill="#4b5563"/>
    </marker>
  </defs>

  <rect width="800" height="400" fill="url(#uidai-bg)"/>

  <!-- Title -->
  <text x="400" y="35" text-anchor="middle" fill="#ffffff" font-family="system-ui" font-size="24" font-weight="bold">Aadhaar Intelligence Platform</text>
  <text x="400" y="58" text-anchor="middle" fill="#a1a1aa" font-family="system-ui" font-size="12">National-Scale Identity Analytics for 1.4B Citizens</text>

  <!-- Data Sources -->
  <rect x="30" y="90" width="140" height="140" rx="12" fill="#18181b" stroke="#f59e0b" stroke-width="2"/>
  <text x="100" y="115" text-anchor="middle" fill="#f59e0b" font-family="system-ui" font-size="10" font-weight="bold">DATA SOURCES</text>
  <rect x="45" y="130" width="110" height="22" rx="4" fill="#27272a"/>
  <text x="100" y="145" text-anchor="middle" fill="#ffffff" font-family="system-ui" font-size="9">Enrollment Data</text>
  <rect x="45" y="157" width="110" height="22" rx="4" fill="#27272a"/>
  <text x="100" y="172" text-anchor="middle" fill="#ffffff" font-family="system-ui" font-size="9">Demographic Updates</text>
  <rect x="45" y="184" width="110" height="22" rx="4" fill="#27272a"/>
  <text x="100" y="199" text-anchor="middle" fill="#ffffff" font-family="system-ui" font-size="9">Biometric Updates</text>

  <!-- Arrow -->
  <path d="M 180 160 L 220 160" stroke="#4b5563" stroke-width="2" marker-end="url(#uidai-arrow)"/>

  <!-- Analytics Engine -->
  <rect x="230" y="80" width="200" height="180" rx="12" fill="#18181b" stroke="#6366f1" stroke-width="2"/>
  <text x="330" y="105" text-anchor="middle" fill="#6366f1" font-family="system-ui" font-size="10" font-weight="bold">ANALYTICS ENGINE</text>
  <rect x="245" y="120" width="170" height="20" rx="4" fill="#27272a"/>
  <text x="330" y="134" text-anchor="middle" fill="#ffffff" font-family="system-ui" font-size="9">Time Series Decomposition</text>
  <rect x="245" y="145" width="170" height="20" rx="4" fill="#27272a"/>
  <text x="330" y="159" text-anchor="middle" fill="#ffffff" font-family="system-ui" font-size="9">XGBoost + Prophet</text>
  <rect x="245" y="170" width="170" height="20" rx="4" fill="#27272a"/>
  <text x="330" y="184" text-anchor="middle" fill="#ffffff" font-family="system-ui" font-size="9">Isolation Forest</text>
  <rect x="245" y="195" width="170" height="20" rx="4" fill="#dc2626"/>
  <text x="330" y="209" text-anchor="middle" fill="#ffffff" font-family="system-ui" font-size="9">Benford's Law Fraud</text>
  <rect x="245" y="220" width="170" height="20" rx="4" fill="#27272a"/>
  <text x="330" y="234" text-anchor="middle" fill="#a1a1aa" font-family="system-ui" font-size="9">Gini Coefficient Equity</text>

  <!-- Arrow -->
  <path d="M 440 160 L 480 160" stroke="#4b5563" stroke-width="2" marker-end="url(#uidai-arrow)"/>

  <!-- Insights -->
  <rect x="490" y="80" width="150" height="180" rx="12" fill="#18181b" stroke="#22c55e" stroke-width="2"/>
  <text x="565" y="105" text-anchor="middle" fill="#22c55e" font-family="system-ui" font-size="10" font-weight="bold">INSIGHTS</text>
  <rect x="505" y="120" width="120" height="22" rx="4" fill="#27272a"/>
  <text x="565" y="135" text-anchor="middle" fill="#ffffff" font-family="system-ui" font-size="9">Demand Forecaster</text>
  <rect x="505" y="147" width="120" height="22" rx="4" fill="#27272a"/>
  <text x="565" y="162" text-anchor="middle" fill="#ffffff" font-family="system-ui" font-size="9">Gap Detector</text>
  <rect x="505" y="174" width="120" height="22" rx="4" fill="#27272a"/>
  <text x="565" y="189" text-anchor="middle" fill="#ffffff" font-family="system-ui" font-size="9">Mobile Recommender</text>
  <rect x="505" y="201" width="120" height="22" rx="4" fill="#27272a"/>
  <text x="565" y="216" text-anchor="middle" fill="#ffffff" font-family="system-ui" font-size="9">Priority Scorer</text>
  <rect x="505" y="228" width="120" height="22" rx="4" fill="#27272a"/>
  <text x="565" y="243" text-anchor="middle" fill="#a1a1aa" font-family="system-ui" font-size="9">Monsoon Analyzer</text>

  <!-- Arrow -->
  <path d="M 650 160 L 690 160" stroke="#4b5563" stroke-width="2" marker-end="url(#uidai-arrow)"/>

  <!-- Dashboard -->
  <rect x="700" y="100" width="90" height="140" rx="12" fill="#18181b" stroke="#ec4899" stroke-width="2"/>
  <text x="745" y="125" text-anchor="middle" fill="#ec4899" font-family="system-ui" font-size="10" font-weight="bold">DASHBOARD</text>
  <rect x="710" y="140" width="70" height="35" rx="4" fill="#27272a"/>
  <text x="745" y="162" text-anchor="middle" fill="#ffffff" font-family="system-ui" font-size="18">Streamlit</text>
  <rect x="710" y="185" width="70" height="22" rx="4" fill="#27272a"/>
  <text x="745" y="200" text-anchor="middle" fill="#ffffff" font-family="system-ui" font-size="9">Plotly</text>
  <rect x="710" y="212" width="70" height="22" rx="4" fill="#27272a"/>
  <text x="745" y="227" text-anchor="middle" fill="#a1a1aa" font-family="system-ui" font-size="9">Folium Maps</text>

  <!-- Key Findings -->
  <rect x="30" y="290" width="760" height="90" rx="10" fill="#18181b" stroke="#3f3f46" stroke-width="1"/>
  <text x="400" y="315" text-anchor="middle" fill="#ffffff" font-family="system-ui" font-size="11" font-weight="bold">KEY FINDINGS</text>
  <text x="120" y="345" text-anchor="middle" fill="#f59e0b" font-family="system-ui" font-size="12" font-weight="bold">30-50%</text>
  <text x="120" y="365" text-anchor="middle" fill="#a1a1aa" font-family="system-ui" font-size="9">Weekend Drop</text>
  <text x="280" y="345" text-anchor="middle" fill="#22c55e" font-family="system-ui" font-size="12" font-weight="bold">Age 5 &amp; 15</text>
  <text x="280" y="365" text-anchor="middle" fill="#a1a1aa" font-family="system-ui" font-size="9">Biometric Updates</text>
  <text x="440" y="345" text-anchor="middle" fill="#6366f1" font-family="system-ui" font-size="12" font-weight="bold">Monsoon</text>
  <text x="440" y="365" text-anchor="middle" fill="#a1a1aa" font-family="system-ui" font-size="9">June-Sept Impact</text>
  <text x="600" y="345" text-anchor="middle" fill="#dc2626" font-family="system-ui" font-size="12" font-weight="bold">Fraud Detection</text>
  <text x="600" y="365" text-anchor="middle" fill="#a1a1aa" font-family="system-ui" font-size="9">Benford Anomalies</text>
  <text x="720" y="345" text-anchor="middle" fill="#ec4899" font-family="system-ui" font-size="12" font-weight="bold">Digital Divide</text>
  <text x="720" y="365" text-anchor="middle" fill="#a1a1aa" font-family="system-ui" font-size="9">Inclusion Index</text>
</svg>
