<svg xmlns="http://www.w3.org/2000/svg" viewBox="0 0 800 400">
  <defs>
    <linearGradient id="bg11" x1="0%" y1="0%" x2="100%" y2="100%">
      <stop offset="0%" style="stop-color:#0a0a0a"/>
      <stop offset="100%" style="stop-color:#1a1a2e"/>
    </linearGradient>
  </defs>

  <rect width="800" height="400" fill="url(#bg11)"/>

  <!-- Title -->
  <text x="400" y="35" text-anchor="middle" fill="#ffffff" font-family="system-ui" font-size="24" font-weight="bold">WhatsApp Market Monitor</text>
  <text x="400" y="58" text-anchor="middle" fill="#a1a1aa" font-family="system-ui" font-size="12">Real-Time Message Capture for Premium Watch Marketplace</text>

  <!-- WhatsApp Groups -->
  <rect x="30" y="100" width="130" height="160" rx="12" fill="#18181b" stroke="#25d366" stroke-width="2"/>
  <text x="95" y="125" text-anchor="middle" fill="#25d366" font-family="system-ui" font-size="10" font-weight="bold">WHATSAPP</text>
  <circle cx="95" cy="160" r="25" fill="#27272a"/>
  <text x="95" y="168" text-anchor="middle" fill="#25d366" font-family="system-ui" font-size="24">WA</text>
  <text x="95" y="200" text-anchor="middle" fill="#ffffff" font-family="system-ui" font-size="9">Watch Groups</text>
  <rect x="50" y="215" width="90" height="20" rx="4" fill="#27272a"/>
  <text x="95" y="229" text-anchor="middle" fill="#a1a1aa" font-family="system-ui" font-size="8">Messages + Media</text>
  <text x="95" y="255" text-anchor="middle" fill="#a1a1aa" font-family="system-ui" font-size="8">Group Members</text>

  <!-- Arrow -->
  <path d="M 170 180 L 210 180" stroke="#25d366" stroke-width="2" marker-end="url(#ar11)"/>
  <text x="190" y="170" text-anchor="middle" fill="#25d366" font-family="system-ui" font-size="7">Webhook</text>
  <defs><marker id="ar11" markerWidth="8" markerHeight="8" refX="7" refY="3" orient="auto"><path d="M0,0 L0,6 L7,3 z" fill="#25d366"/></marker></defs>

  <!-- WAHA -->
  <rect x="220" y="110" width="130" height="140" rx="12" fill="#18181b" stroke="#6366f1" stroke-width="2"/>
  <text x="285" y="135" text-anchor="middle" fill="#6366f1" font-family="system-ui" font-size="10" font-weight="bold">WAHA</text>
  <rect x="235" y="150" width="100" height="22" rx="4" fill="#27272a"/>
  <text x="285" y="165" text-anchor="middle" fill="#ffffff" font-family="system-ui" font-size="9">NOWEB Engine</text>
  <rect x="235" y="177" width="100" height="22" rx="4" fill="#27272a"/>
  <text x="285" y="192" text-anchor="middle" fill="#ffffff" font-family="system-ui" font-size="9">Port 3000</text>
  <rect x="235" y="204" width="100" height="22" rx="4" fill="#27272a"/>
  <text x="285" y="219" text-anchor="middle" fill="#a1a1aa" font-family="system-ui" font-size="9">Docker</text>

  <!-- Arrow -->
  <path d="M 360 180 L 400 180" stroke="#4b5563" stroke-width="2" marker-end="url(#ar11b)"/>
  <defs><marker id="ar11b" markerWidth="8" markerHeight="8" refX="7" refY="3" orient="auto"><path d="M0,0 L0,6 L7,3 z" fill="#4b5563"/></marker></defs>

  <!-- FastAPI -->
  <rect x="410" y="100" width="150" height="160" rx="12" fill="#18181b" stroke="#009688" stroke-width="2"/>
  <text x="485" y="125" text-anchor="middle" fill="#009688" font-family="system-ui" font-size="10" font-weight="bold">FASTAPI</text>
  <rect x="425" y="140" width="120" height="22" rx="4" fill="#27272a"/>
  <text x="485" y="155" text-anchor="middle" fill="#ffffff" font-family="system-ui" font-size="9">Webhook Receiver</text>
  <rect x="425" y="167" width="120" height="22" rx="4" fill="#27272a"/>
  <text x="485" y="182" text-anchor="middle" fill="#ffffff" font-family="system-ui" font-size="9">Task Queue (10)</text>
  <rect x="425" y="194" width="120" height="22" rx="4" fill="#27272a"/>
  <text x="485" y="209" text-anchor="middle" fill="#ffffff" font-family="system-ui" font-size="9">Deduplication</text>
  <rect x="425" y="221" width="120" height="22" rx="4" fill="#27272a"/>
  <text x="485" y="236" text-anchor="middle" fill="#a1a1aa" font-family="system-ui" font-size="9">LID Resolution</text>

  <!-- Arrow -->
  <path d="M 570 180 L 610 180" stroke="#4b5563" stroke-width="2" marker-end="url(#ar11b)"/>

  <!-- Storage -->
  <rect x="620" y="100" width="160" height="160" rx="12" fill="#18181b" stroke="#34a853" stroke-width="2"/>
  <text x="700" y="125" text-anchor="middle" fill="#34a853" font-family="system-ui" font-size="10" font-weight="bold">STORAGE</text>

  <rect x="635" y="140" width="130" height="30" rx="4" fill="#27272a"/>
  <text x="700" y="160" text-anchor="middle" fill="#34a853" font-family="system-ui" font-size="11">Google Sheets</text>

  <rect x="635" y="175" width="60" height="22" rx="4" fill="#27272a"/>
  <text x="665" y="190" text-anchor="middle" fill="#ffffff" font-family="system-ui" font-size="8">Messages</text>
  <rect x="700" y="175" width="65" height="22" rx="4" fill="#27272a"/>
  <text x="732" y="190" text-anchor="middle" fill="#ffffff" font-family="system-ui" font-size="8">Contacts</text>

  <rect x="635" y="202" width="130" height="22" rx="4" fill="#27272a"/>
  <text x="700" y="217" text-anchor="middle" fill="#ffffff" font-family="system-ui" font-size="9">Group Members</text>

  <rect x="635" y="229" width="130" height="22" rx="4" fill="#27272a"/>
  <text x="700" y="244" text-anchor="middle" fill="#a1a1aa" font-family="system-ui" font-size="9">SQLite Cache</text>

  <!-- Features -->
  <rect x="30" y="290" width="740" height="90" rx="10" fill="#18181b" stroke="#3f3f46" stroke-width="1"/>

  <rect x="60" y="310" width="130" height="55" rx="6" fill="#27272a"/>
  <text x="125" y="335" text-anchor="middle" fill="#25d366" font-family="system-ui" font-size="10" font-weight="bold">10 Workers</text>
  <text x="125" y="350" text-anchor="middle" fill="#a1a1aa" font-family="system-ui" font-size="8">Concurrent Processing</text>

  <rect x="210" y="310" width="130" height="55" rx="6" fill="#27272a"/>
  <text x="275" y="335" text-anchor="middle" fill="#6366f1" font-family="system-ui" font-size="10" font-weight="bold">Rate Limited</text>
  <text x="275" y="350" text-anchor="middle" fill="#a1a1aa" font-family="system-ui" font-size="8">100 req/100 sec</text>

  <rect x="360" y="310" width="130" height="55" rx="6" fill="#27272a"/>
  <text x="425" y="335" text-anchor="middle" fill="#009688" font-family="system-ui" font-size="10" font-weight="bold">Batch Writes</text>
  <text x="425" y="350" text-anchor="middle" fill="#a1a1aa" font-family="system-ui" font-size="8">Google API Quota</text>

  <rect x="510" y="310" width="130" height="55" rx="6" fill="#27272a"/>
  <text x="575" y="335" text-anchor="middle" fill="#f59e0b" font-family="system-ui" font-size="10" font-weight="bold">Media Storage</text>
  <text x="575" y="350" text-anchor="middle" fill="#a1a1aa" font-family="system-ui" font-size="8">Local + Public URLs</text>

  <rect x="660" y="310" width="100" height="55" rx="6" fill="#27272a"/>
  <text x="710" y="335" text-anchor="middle" fill="#dc2626" font-family="system-ui" font-size="10" font-weight="bold">DLQ</text>
  <text x="710" y="350" text-anchor="middle" fill="#a1a1aa" font-family="system-ui" font-size="8">Error Recovery</text>
</svg>